<?xml version="1.0" encoding="UTF-8"?>
<svg version="1.1" xmlns="http://www.w3.org/2000/svg" width="500" height="500">
<path d="M0 0 C7.2153262 0.65353016 13.96878123 2.43561919 20.9375 4.375 C22.18789063 4.72151611 23.43828125 5.06803223 24.7265625 5.42504883 C34.7416885 8.23754777 44.63424232 11.39238233 54.5 14.6875 C55.18311249 14.91516052 55.86622498 15.14282104 56.57003784 15.37738037 C76.14237853 21.9240265 94.40318152 29.96492037 112.58984375 39.66796875 C115.35544644 41.14339722 118.13630266 42.56660829 120.953125 43.94140625 C125.71404987 46.30625233 130.2591945 49.01105512 134.8125 51.75 C135.69107666 52.277146 136.56965332 52.80429199 137.47485352 53.34741211 C143.13376096 56.77789273 148.55298116 60.35277799 153.80859375 64.37890625 C156.03515078 66.0926515 156.03515078 66.0926515 158.78515625 67.58984375 C159.51605469 68.05519531 160.24695313 68.52054687 161 69 C161 69.66 161 70.32 161 71 C161.680625 71.226875 162.36125 71.45375 163.0625 71.6875 C166.6988709 73.31226146 170.02829263 75.32803257 173 78 C173 78.66 173 79.32 173 80 C173.82371094 80.36351562 173.82371094 80.36351562 174.6640625 80.734375 C181.96014828 84.6874382 188.31565082 91.0083887 194 97 C191.02158458 75.17540425 177.76969229 53.81885688 167 35 C167.66 34.01 168.32 33.02 169 32 C170.46381359 33.57826815 171.92085163 35.16282229 173.375 36.75 C174.18710938 37.63171875 174.99921875 38.5134375 175.8359375 39.421875 C177.6625848 41.59802521 178.89787994 43.40820119 180 46 C180.66 46 181.32 46 182 46 C182 46.66 182 47.32 182 48 C182.66 48 183.32 48 184 48 C185.3046875 49.328125 185.3046875 49.328125 186.875 51.25 C190.58350916 55.63775189 194.59393102 59.63694045 198.73583984 63.61035156 C204.14745999 68.896449 207.44346359 74.27875179 209.625 81.5625 C209.82867187 82.18962891 210.03234375 82.81675781 210.2421875 83.46289062 C213.63341228 94.47350185 214.36924443 105.98215439 215.00537109 117.4206543 C215.12509173 119.56414227 215.25519308 121.7068166 215.38671875 123.84960938 C216.23562317 138.07500947 215.86458557 152.04236398 215 166.25 C214.90332384 167.88149137 214.80696747 169.51300172 214.7109375 171.14453125 C214.47763785 175.09658229 214.24003545 179.04835259 214 183 C213.01 183 212.02 183 211 183 C210.5153125 181.99582031 210.030625 180.99164063 209.53125 179.95703125 C208.85450955 178.57535284 208.17740603 177.19385222 207.5 175.8125 C207.18546875 175.15830078 206.8709375 174.50410156 206.546875 173.83007812 C203.15254584 166.94350645 199.07959405 160.49418814 195 154 C194.85425877 160.98439081 194.71232082 167.96885226 194.57275391 174.95336914 C194.52508105 177.31829487 194.47660783 179.68320463 194.42724609 182.0480957 C194.10121219 197.70104986 193.92587532 213.34358567 194 229 C204.17135433 232.5455063 214.41903135 235.58689765 224.81420898 238.41235352 C230.06098281 239.84943173 235.20218289 241.40059989 240.33203125 243.21484375 C249.42846323 246.2428048 255.55818971 244.45099656 264.375 241.4375 C273.48934333 238.41977559 282.62872044 235.58719966 291.875 233 C292.94411621 232.69763428 294.01323242 232.39526855 295.11474609 232.08374023 C296.10555176 231.80860596 297.09635742 231.53347168 298.1171875 231.25 C298.98972168 231.00765625 299.86225586 230.7653125 300.76123047 230.515625 C303 230 303 230 306 230 C305.97265274 229.44956528 305.94530548 228.89913055 305.91712952 228.33201599 C305.1164612 211.9117389 304.71379225 195.49906951 304.4375 179.0625 C304.3941495 176.61392751 304.35053104 174.16535975 304.30664062 171.71679688 C304.20135251 165.8112486 304.09931621 159.90565158 304 154 C302.4054839 156.6842105 300.81564458 159.37116326 299.2265625 162.05859375 C298.77998291 162.81023804 298.33340332 163.56188232 297.87329102 164.33630371 C294.27894089 170.42297819 291.02863318 176.61032269 288 183 C287.34 183 286.68 183 286 183 C284.36660427 169.18589977 283.66757823 155.59369533 283.75 141.6875 C283.75310181 140.7504422 283.75620361 139.8133844 283.75939941 138.84793091 C283.98442796 80.76521893 283.98442796 80.76521893 304 60 C304.54398437 59.40960938 305.08796875 58.81921875 305.6484375 58.2109375 C307 57 307 57 309 57 C309.66 55.68 310.32 54.36 311 53 C311.66 53 312.32 53 313 53 C313.24621094 52.42507812 313.49242187 51.85015625 313.74609375 51.2578125 C315.19793053 48.64360173 316.90287549 46.93663792 319.0625 44.875 C321.91571933 42.22095 321.91571933 42.22095 324 39 C324.66 39 325.32 39 326 39 C326.268125 38.401875 326.53625 37.80375 326.8125 37.1875 C327.98493467 35.02775192 329.19369282 33.64209744 331 32 C331.65234375 33.765625 331.65234375 33.765625 332 36 C331.06640625 37.796875 331.06640625 37.796875 329.5625 39.75 C325.25493256 45.81657409 322.18541162 52.4124768 318.94628906 59.08544922 C318.11784127 60.76158121 317.2459507 62.41609736 316.3671875 64.06640625 C311.00008821 74.16835491 306.53749225 85.60446922 305 97 C305.77085937 96.278125 306.54171875 95.55625 307.3359375 94.8125 C308.34871795 93.87474032 309.36175196 92.93725443 310.375 92 C310.88289063 91.52304688 311.39078125 91.04609375 311.9140625 90.5546875 C315.7734375 87 315.7734375 87 318 87 C318 86.34 318 85.68 318 85 C319.92587579 83.36860063 321.84326717 81.86276775 323.875 80.375 C324.43058594 79.95476562 324.98617188 79.53453125 325.55859375 79.1015625 C329.73764712 76 329.73764712 76 332 76 C332.33 75.01 332.66 74.02 333 73 C334.65136719 71.59301758 334.65136719 71.59301758 336.796875 70.14453125 C337.58400879 69.60868408 338.37114258 69.07283691 339.18212891 68.52075195 C340.02952637 67.95702881 340.87692383 67.39330566 341.75 66.8125 C342.6167334 66.22879639 343.4834668 65.64509277 344.37646484 65.04370117 C351.14563445 60.50977694 357.9985671 56.16751959 365 52 C366.3024658 51.20375029 367.60452693 50.40683836 368.90625 49.609375 C378.58171152 43.7369326 388.49516057 38.7181855 398.78662109 34.01855469 C400.81187255 33.08657266 402.82398786 32.13244314 404.83203125 31.1640625 C430.3973864 18.92149806 457.38414085 10.35341408 484.62084961 2.67578125 C486.11672808 2.25088729 487.61017884 1.8172514 489.09985352 1.37109375 C492.86738708 0.24583593 496.05751854 -0.19231617 500 0 C498.76034977 3.71895069 497.74443916 4.02865028 494.4375 6 C489.41211873 9.08495264 484.53463264 12.32942175 479.6875 15.6875 C475.14942467 18.83054747 470.59846084 21.94535528 466 25 C464.9275 25.7425 463.855 26.485 462.75 27.25 C460 29 460 29 458 29 C458 29.66 458 30.32 458 31 C456.26171875 32.26953125 456.26171875 32.26953125 453.6875 33.8125 C447.94407111 37.35503488 442.37309519 41.11481764 436.8125 44.9375 C435.95035889 45.52958252 435.08821777 46.12166504 434.19995117 46.73168945 C432.13228321 48.15299049 430.06560335 49.57570078 428 51 C429.093125 50.7834375 430.18625 50.566875 431.3125 50.34375 C444.5973988 47.89296795 457.51898796 47.66249874 471 48 C472.38128467 52.143854 471.35608356 55.58194067 470.5 59.75 C470.31912842 60.63107422 470.13825684 61.51214844 469.9519043 62.41992188 C464.44272732 88.12791103 455.3733845 113.35036303 438.6328125 133.95703125 C436.99289745 135.95861411 436.99289745 135.95861411 435.6171875 138.01171875 C423.7533778 155.26508771 401.70248068 166.13707682 381.5625 169.9375 C366.03553141 172.46606486 349.06636639 171.48091693 334 167 C337.25276987 176.03506187 341.08254553 184.4123451 345.625 192.875 C355 210.4847973 355 210.4847973 355 215 C349.45954174 213.68797385 345.29259489 211.63337503 340.5625 208.5 C339.92634766 208.09652344 339.29019531 207.69304687 338.63476562 207.27734375 C337.04896767 206.24512725 335.51850722 205.12887638 334 204 C334 203.34 334 202.68 334 202 C333.43796875 201.74476563 332.8759375 201.48953125 332.296875 201.2265625 C328.16267849 199.01884531 324.65954416 195.9061086 321 193 C320.40168389 200.76615711 319.9354644 208.50048665 319.82421875 216.2890625 C319.81230499 216.97458191 319.80039124 217.66010132 319.78811646 218.36639404 C319.73945127 221.1692621 319.69158071 223.9716408 319.67407227 226.77490234 C319.65860533 228.86365184 319.61852523 230.95075164 319.57421875 233.0390625 C319.55963623 234.25803223 319.54505371 235.47700195 319.5300293 236.73291016 C318.68923384 241.9155563 316.00093 244.22092562 311.96875 247.359375 C310.81716871 248.16298209 309.66066868 248.95957477 308.5 249.75 C307.23615762 250.63163596 305.97314978 251.51446935 304.7109375 252.3984375 C304.0828418 252.83639648 303.45474609 253.27435547 302.80761719 253.72558594 C298.11873602 257.03136116 293.57689276 260.5420282 289 264 C287.0922622 265.43310738 285.18323058 266.86447283 283.27368164 268.29516602 C281.92549764 269.30601938 280.5783269 270.31822555 279.23217773 271.33178711 C275.68350106 274.00167915 272.11989231 276.64718034 268.52734375 279.2578125 C267.80063477 279.79043701 267.07392578 280.32306152 266.32519531 280.87182617 C264.93536554 281.88975426 263.54042011 282.90074687 262.13964844 283.90356445 C256.68274062 287.91948574 254.15590172 291.72892244 252.3125 298.3125 C252.06113281 299.19550781 251.80976563 300.07851563 251.55078125 300.98828125 C251.36902344 301.65214844 251.18726563 302.31601562 251 303 C250.01 303 249.02 303 248 303 C247.75507813 302.0821875 247.51015625 301.164375 247.2578125 300.21875 C244.42156675 290.90803982 241.33065492 286.43459034 233 281 C231.22372876 279.71582168 229.45297678 278.42397853 227.6875 277.125 C226.31658203 276.13886719 226.31658203 276.13886719 224.91796875 275.1328125 C221.7362551 272.8072226 218.61466053 270.41410277 215.5 268 C211.54385006 264.9351887 207.56014143 261.92707871 203.5 259 C197.22510445 254.4732425 191.10078407 249.75764063 185 245 C184.12738525 244.47083984 183.25477051 243.94167969 182.35571289 243.39648438 C179.5588009 240.55116485 179.40077936 238.72171796 179.33235168 234.80584717 C179.34766182 233.59484344 179.34766182 233.59484344 179.36328125 232.359375 C179.35290329 231.51836243 179.34252533 230.67734985 179.33183289 229.81085205 C179.3021569 227.12348649 179.30551761 224.43749956 179.3125 221.75 C179.30356965 219.07717061 179.28744153 216.40470911 179.2610321 213.73199463 C179.24627475 212.07137148 179.24221892 210.41060547 179.25080872 208.74993896 C179.22536377 203.51741351 178.44691874 199.03319737 177 194 C176.30982788 194.60403656 176.30982788 194.60403656 175.60571289 195.22027588 C171.38312225 198.90425792 167.02492713 202.32226968 162.5 205.625 C161.87480469 206.0890625 161.24960938 206.553125 160.60546875 207.03125 C149.73285222 215 149.73285222 215 145 215 C146.32498974 206.69153493 150.34884525 198.35594082 154.875 191.3125 C159.65084131 183.78038858 162.67620795 175.24473093 166 167 C165.15179688 167.20496094 164.30359375 167.40992188 163.4296875 167.62109375 C138.10719861 173.43691812 110.86994197 172.57176697 87.94140625 159.21875 C53.37922716 137.02851017 37.59975185 99.63057109 29 61 C28.81228027 60.15864502 28.62456055 59.31729004 28.43115234 58.45043945 C27.81048105 54.92287562 27.93936051 51.57772968 28 48 C42.68088108 47.63245965 56.57781919 48.1427755 71 51 C70.52916992 50.67950684 70.05833984 50.35901367 69.57324219 50.02880859 C59.33289033 43.05303156 49.14049208 36.01501862 39.00415039 28.88891602 C34.60311497 25.8011312 30.18098957 22.76398778 25.6875 19.8125 C20.37248448 16.3145838 15.25680832 12.57390135 10.16088867 8.7668457 C7.50493992 6.79106587 4.93092026 4.96009338 2.05859375 3.30078125 C1.37925781 2.87152344 0.69992188 2.44226563 0 2 C0 1.34 0 0.68 0 0 Z " fill="#120F18" transform="translate(0,111)"/>
<path d="M0 0 C8.72220197 1.26217609 17.02899628 3.64221099 25.43261719 6.21435547 C28.32048156 7.09807053 31.21091752 7.97308085 34.1015625 8.84765625 C49.95334479 13.65111493 49.95334479 13.65111493 54 15 C54.03963867 15.55236328 54.07927734 16.10472656 54.12011719 16.67382812 C55.30912289 32.53161682 56.70843137 48.98330065 65 63 C65.66 63.33 66.32 63.66 67 64 C67.27070313 63.30003906 67.54140625 62.60007813 67.8203125 61.87890625 C69.06575814 58.83952402 70.45776392 55.90047802 71.875 52.9375 C74.75213526 46.76012136 77.0057575 40.51061522 79 34 C90.69807349 35.96815928 103.14758949 48.651091 110.91796875 57.140625 C112 59 112 59 111.90625 60.99609375 C107.97092858 69.69790362 96.38495207 74.65686178 88 78 C73.41810607 82.35594136 57.69815408 81.46525579 44 75 C42.95457031 74.54238281 41.90914062 74.08476562 40.83203125 73.61328125 C24.75273478 66.17482344 10.29377393 52.36277022 2.25 36.5625 C-1.89906067 24.73767708 -1.99492459 12.30469489 0 0 Z " fill="#9B24FB" transform="translate(69,179)"/>
<path d="M0 0 C0.66 0 1.32 0 2 0 C3.32754849 6.96962957 3.1695379 13.92784757 3 21 C2.97486328 22.22976562 2.97486328 22.22976562 2.94921875 23.484375 C2.23131653 34.72467256 -3.5875592 43.89688252 -11 52 C-11.43199707 52.47969238 -11.86399414 52.95938477 -12.30908203 53.45361328 C-24.11963555 66.43228936 -40.95406487 78.78690525 -59.13134766 80.16113281 C-79.19089646 80.53014269 -79.19089646 80.53014269 -87 77 C-87.9590625 76.5978125 -88.918125 76.195625 -89.90625 75.78125 C-97.23734508 72.44893405 -106.25077109 67.49845782 -110 60 C-107.6973446 57.30540326 -105.35681405 54.64731598 -103 52 C-102.25943359 51.13955078 -102.25943359 51.13955078 -101.50390625 50.26171875 C-97.59297133 46.00540257 -93.08513354 42.83453896 -88.3125 39.625 C-87.65830078 39.18365723 -87.00410156 38.74231445 -86.33007812 38.28759766 C-83.24571137 36.26536027 -80.60604758 34.75226639 -77 34 C-76.63648438 35.18335938 -76.27296875 36.36671875 -75.8984375 37.5859375 C-73.34855721 45.6716746 -70.89884796 53.1647784 -66.1015625 60.25 C-65 62 -65 62 -65 64 C-64.34 64 -63.68 64 -63 64 C-62.7215625 63.29746094 -62.443125 62.59492188 -62.15625 61.87109375 C-60.55909384 57.90518234 -58.88509816 53.97241181 -57.21875 50.03515625 C-52.65836711 38.67804885 -51.68235323 27.13870476 -51 15 C-41.02061967 11.59878798 -31.00541748 8.31754523 -20.9375 5.1875 C-19.98738037 4.88577881 -19.03726074 4.58405762 -18.05834961 4.27319336 C-12.32673106 2.51058606 -6.96603684 1.55875269 -1 1 C-0.67 0.67 -0.34 0.34 0 0 Z " fill="#871AE6" transform="translate(428,179)"/>
<path d="M0 0 C-0.45234771 4.38672083 -3.39775546 6.9171761 -6.3125 9.9375 C-7.28926849 10.96601782 -8.26455064 11.99594941 -9.23828125 13.02734375 C-9.70830566 13.52218262 -10.17833008 14.01702148 -10.66259766 14.52685547 C-11.92350574 15.91574181 -13.08158292 17.39601859 -14.23046875 18.87890625 C-14.81441406 19.57886719 -15.39835937 20.27882813 -16 21 C-16.66 21 -17.32 21 -18 21 C-18.495 22.485 -18.495 22.485 -19 24 C-19.66 24 -20.32 24 -21 24 C-21 24.66 -21 25.32 -21 26 C-21.66 26 -22.32 26 -23 26 C-23 26.66 -23 27.32 -23 28 C-23.66 28 -24.32 28 -25 28 C-25 28.66 -25 29.32 -25 30 C-26.6875 31.48046875 -26.6875 31.48046875 -29 33.1875 C-32.9817102 36.18164543 -36.70449211 39.34453315 -40.37109375 42.71484375 C-42 44 -42 44 -44 44 C-44 44.66 -44 45.32 -44 46 C-46.25814848 47.79826445 -48.51277739 49.4746801 -50.875 51.125 C-51.52597656 51.59292969 -52.17695313 52.06085938 -52.84765625 52.54296875 C-57.73587828 56 -57.73587828 56 -60 56 C-60 56.66 -60 57.32 -60 58 C-62.42971206 59.6489485 -64.85788467 61.18272106 -67.375 62.6875 C-72.13557024 65.59051645 -76.83919157 68.50079107 -81.375 71.75 C-89.1733025 77.30531248 -97.37861179 81.85439631 -106 86 C-105.47320171 81.48105842 -103.73721825 78.89532317 -101 75.3125 C-98.26374092 71.80313839 -98.26374092 71.80313839 -96 68 C-95.34 68 -94.68 68 -94 68 C-94 67.01 -94 66.02 -94 65 C-93.34 65 -92.68 65 -92 65 C-91.731875 64.2575 -91.46375 63.515 -91.1875 62.75 C-90.04723249 60.10938051 -88.90619694 58.14447156 -87 56 C-86.34 56 -85.68 56 -85 56 C-84.731875 55.360625 -84.46375 54.72125 -84.1875 54.0625 C-83 52 -83 52 -80 51 C-80 50.34 -80 49.68 -80 49 C-77.90393072 47.46268118 -75.82504363 46.0617175 -73.625 44.6875 C-72.98087158 44.28088135 -72.33674316 43.8742627 -71.6730957 43.45532227 C-65.41276027 39.5520761 -58.96290949 36.33192797 -52.23828125 33.30859375 C-34.95722703 25.47018373 -17.63211615 15.85769146 -4.23828125 2.1796875 C-2 0 -2 0 0 0 Z " fill="#2B2930" transform="translate(449,278)"/>
<path d="M0 0 C3.89060762 1.62495545 6.71295031 4.28949229 9.8125 7.0625 C16.17732748 12.60061997 22.94409903 16.87421271 30.27441406 21.01074219 C31.79411925 21.88197102 33.2863319 22.8007869 34.7734375 23.7265625 C41.5882793 27.94337077 48.68207626 31.12957763 56 34.375 C64.97883256 38.37589853 72.54792616 42.52272411 80 49 C80.78246094 49.55558594 81.56492187 50.11117187 82.37109375 50.68359375 C86.17724215 54.03730252 88.92688502 58.01663861 91.875 62.125 C92.49125244 62.97578125 93.10750488 63.8265625 93.74243164 64.703125 C94.95482028 66.37967248 96.16431216 68.05831935 97.37060547 69.73925781 C98.73211201 71.62831243 100.1100215 73.50202297 101.50390625 75.3671875 C102.14199219 76.23601562 102.78007812 77.10484375 103.4375 78 C103.97246094 78.721875 104.50742188 79.44375 105.05859375 80.1875 C105.36925781 80.785625 105.67992187 81.38375 106 82 C105.505 83.485 105.505 83.485 105 85 C96.58984959 80.30923222 88.37213278 75.41742703 80.30859375 70.15234375 C77.35276243 68.229483 74.37011904 66.36066936 71.375 64.5 C66.43288222 61.36421182 61.795105 57.90278375 57.1484375 54.34765625 C52.68157797 51.01690864 48.05980802 47.93416801 43.421875 44.84765625 C42.62265625 44.23792969 41.8234375 43.62820313 41 43 C41 42.34 41 41.68 41 41 C40.43796875 40.75636719 39.8759375 40.51273437 39.296875 40.26171875 C36.55980215 38.75819064 34.54204059 36.93300252 32.25 34.8125 C29.24589467 32.05362776 26.23356028 29.32782526 23.125 26.6875 C19.45365346 23.48451454 15.96652047 20.10884912 12.5 16.6875 C11.95875488 16.15922607 11.41750977 15.63095215 10.85986328 15.08666992 C9.53330058 13.76331148 8.261486 12.38553212 7 11 C7 10.34 7 9.68 7 9 C6.34 9 5.68 9 5 9 C0 3.64285714 0 3.64285714 0 0 Z " fill="#2B2A30" transform="translate(51,279)"/>
<path d="M0 0 C8.72220197 1.26217609 17.02899628 3.64221099 25.43261719 6.21435547 C28.32048156 7.09807053 31.21091752 7.97308085 34.1015625 8.84765625 C49.95334479 13.65111493 49.95334479 13.65111493 54 15 C54.03963867 15.55236328 54.07927734 16.10472656 54.12011719 16.67382812 C55.19984037 31.07411407 57.31169291 44.29088774 62 58 C61.34 58 60.68 58 60 58 C59.67 59.32 59.34 60.64 59 62 C56.03 62.495 56.03 62.495 53 63 C49.5883234 58.44330866 46.7676159 53.98883603 44.5 48.75 C44.20158203 48.07759277 43.90316406 47.40518555 43.59570312 46.71240234 C40.91515944 40.39006623 39.28369682 33.86589101 38.03710938 27.12011719 C37.55306305 24.88957941 37.06624377 23.01847742 36 21 C33.31238699 19.69202833 31.87600522 19.33219074 29 19 C27.1535207 18.70259883 25.30717715 18.40435409 23.4609375 18.10546875 C20.40054896 17.63846141 17.34077947 17.18282377 14.2734375 16.76367188 C8.19765045 15.81037456 4.77472522 14.98626367 1 10 C0.67 14.29 0.34 18.58 0 23 C-0.33 23 -0.66 23 -1 23 C-1.0272367 20.47909222 -1.04695207 17.95848543 -1.0625 15.4375 C-1.07087891 14.73302734 -1.07925781 14.02855469 -1.08789062 13.30273438 C-1.10882603 8.75975202 -0.74800682 4.48215108 0 0 Z " fill="#5300AF" transform="translate(69,179)"/>
<path d="M0 0 C11.69807349 1.96815928 24.14758949 14.651091 31.91796875 23.140625 C33 25 33 25 32.8984375 27.03125 C31.79405809 29.4512814 30.50747316 30.59402147 28.4375 32.25 C27.47650391 33.03117187 27.47650391 33.03117187 26.49609375 33.828125 C26.00238281 34.21484375 25.50867188 34.6015625 25 35 C24.34 34.67 23.68 34.34 23 34 C23 32.68 23 31.36 23 30 C22.18595703 29.61908203 22.18595703 29.61908203 21.35546875 29.23046875 C0.26459883 18.21285013 0.26459883 18.21285013 -2.828125 11.09375 C-3.04355891 8.46937332 -2.46841238 6.71408168 -1.5625 4.25 C-1.27503906 3.45078125 -0.98757812 2.6515625 -0.69140625 1.828125 C-0.46324219 1.22484375 -0.23507813 0.6215625 0 0 Z " fill="#5300B1" transform="translate(148,213)"/>
<path d="M0 0 C0.99 3.63 1.98 7.26 3 11 C-17.08494891 28.19625067 -17.08494891 28.19625067 -27.25 28.0625 C-28.14203125 28.05347656 -29.0340625 28.04445312 -29.953125 28.03515625 C-30.62859375 28.02355469 -31.3040625 28.01195312 -32 28 C-32.33 27.34 -32.66 26.68 -33 26 C-30.6973446 23.30540326 -28.35681405 20.64731598 -26 18 C-25.50628906 17.42636719 -25.01257813 16.85273438 -24.50390625 16.26171875 C-19.50981493 10.82659079 -7.6165045 0 0 0 Z " fill="#5300B0" transform="translate(351,213)"/>
<path d="M0 0 C2.06771303 6.20313908 -2.7790712 13.48855577 -5.5078125 19.1015625 C-14.32077029 35.23736444 -29.66154407 50.4540817 -47.48632812 55.90844727 C-57.85636216 58.72024203 -68.33977822 58.40426745 -79 58 C-79 57.67 -79 57.34 -79 57 C-78.44763672 56.97083496 -77.89527344 56.94166992 -77.32617188 56.91162109 C-64.55334853 56.16292412 -53.61686973 54.43822693 -42 49 C-40.99195313 48.55398438 -39.98390625 48.10796875 -38.9453125 47.6484375 C-20.04997256 38.07275032 -7.23151523 19.29562958 0 0 Z " fill="#A730EA" transform="translate(437,208)"/>
<path d="M0 0 C2.42273309 2.90284788 3.97823492 5.95317419 5.54785156 9.38037109 C14.51957002 28.76388384 30.7877592 44.30710859 50.9375 51.75 C59.71487216 54.69490354 68.8173644 55.33774318 78 56 C78 56.33 78 56.66 78 57 C60.41766657 57.68800435 45.86879421 56.34443254 31 46 C30.13890625 45.40316406 29.2778125 44.80632812 28.390625 44.19140625 C14.57432759 33.87209095 5.17477688 19.32573415 0 3 C0 2.01 0 1.02 0 0 Z " fill="#A62EE7" transform="translate(61,209)"/>
<path d="M0 0 C0.33 0 0.66 0 1 0 C1.17109774 2.74978517 1.33692346 5.49973619 1.5 8.25 C1.54769531 9.00796875 1.59539062 9.7659375 1.64453125 10.546875 C2.38071283 23.16713068 1.76667002 35.65139902 1 48.25 C0.90332384 49.88149137 0.80696747 51.51300172 0.7109375 53.14453125 C0.47763785 57.09658229 0.24003545 61.04835259 0 65 C-0.99 65 -1.98 65 -3 65 C-3.66 63.02 -4.32 61.04 -5 59 C-4.34 59 -3.68 59 -3 59 C-3 59.99 -3 60.98 -3 62 C-2.34 62 -1.68 62 -1 62 C-0.67 41.54 -0.34 21.08 0 0 Z " fill="#DBDBDC" transform="translate(214,229)"/>
<path d="M0 0 C1.83026638 5.49079915 -1.72813217 10.92170721 -4 16 C-7.38122896 22.51655036 -11.03121282 28.57950489 -16 34 C-17.32 33.67 -18.64 33.34 -20 33 C-19.195625 32.13375 -18.39125 31.2675 -17.5625 30.375 C-9.82608915 21.30030007 -4.07617112 11.18386648 0 0 Z " fill="#9C29D8" transform="translate(437,208)"/>
<path d="M0 0 C0.495 0.99 0.495 0.99 1 2 C1.99 2.33 2.98 2.66 4 3 C-5.69591883 6.95018915 -14.67282787 8.31584022 -25.125 8.125 C-26.08148438 8.11597656 -27.03796875 8.10695313 -28.0234375 8.09765625 C-30.34923525 8.07439827 -32.67447294 8.04172213 -35 8 C-35 7.67 -35 7.34 -35 7 C-34.15574463 6.94839722 -34.15574463 6.94839722 -33.29443359 6.89575195 C-21.42154861 6.11543701 -10.95209034 4.82260113 0 0 Z " fill="#9829CC" transform="translate(393,258)"/>
<path d="M0 0 C0.66 0.33 1.32 0.66 2 1 C1.32599282 4.91114026 -0.54256033 7.87119182 -2.5625 11.25 C-3.20316406 12.32765625 -3.84382813 13.4053125 -4.50390625 14.515625 C-4.99761719 15.33546875 -5.49132812 16.1553125 -6 17 C-7.32 16.34 -8.64 15.68 -10 15 C-12.31 16.98 -14.62 18.96 -17 21 C-15.16944828 17.33889657 -13.81645033 15.62332645 -10.9375 12.875 C-8.08428067 10.22095 -8.08428067 10.22095 -6 7 C-5.34 7 -4.68 7 -4 7 C-3.71125 6.401875 -3.4225 5.80375 -3.125 5.1875 C-2 3 -2 3 0 0 Z " fill="#6E6E6F" transform="translate(330,143)"/>
<path d="M0 0 C3.3886983 0.29212916 5.23955766 0.90193003 8.3125 2.1875 C16.39897847 5.35470407 25.04401 5.63669146 33.625 6.3125 C33.625 6.6425 33.625 6.9725 33.625 7.3125 C21.42139458 7.79003239 10.23763824 7.41812952 -1.375 3.3125 C-2.035 2.6525 -2.695 1.9925 -3.375 1.3125 C-2.375 0.3125 -2.375 0.3125 0 0 Z " fill="#982ACF" transform="translate(105.375,258.6875)"/>
<path d="M0 0 C4.36992554 1.36560173 7.49761366 3.76048607 11.03515625 6.5625 C12.95290591 7.96554547 14.84799761 9.0030813 17 10 C15.2734375 11.12890625 15.2734375 11.12890625 13 12 C10.8515625 11.27734375 10.8515625 11.27734375 8.625 9.9375 C7.84511719 9.46828125 7.06523438 8.9990625 6.26171875 8.515625 C3.29833641 6.52980056 0.65421347 4.38198644 -2 2 C-1.34 1.34 -0.68 0.68 0 0 Z " fill="#A52FEA" transform="translate(88,248)"/>
<path d="M0 0 C3.95969176 1.67229701 7.0161201 4.36304994 10.25 7.125 C10.80429687 7.59292969 11.35859375 8.06085938 11.9296875 8.54296875 C13.28947326 9.69175328 14.64515165 10.84539653 16 12 C13 12 13 12 10 11 C10 11.99 10 12.98 10 14 C8.5 12.625 8.5 12.625 7 11 C7 10.34 7 9.68 7 9 C6.34 9 5.68 9 5 9 C0 3.64285714 0 3.64285714 0 0 Z " fill="#A0A0A1" transform="translate(51,279)"/>
<path d="M0 0 C-0.33 0.66 -0.66 1.32 -1 2 C0.32 2.66 1.64 3.32 3 4 C-2.12919186 6.10428384 -6.5610835 6.21755666 -12 6 C-10.68 5.67 -9.36 5.34 -8 5 C-7.9175 4.38125 -7.835 3.7625 -7.75 3.125 C-7 1 -7 1 -5.125 -0.3125 C-3 -1 -3 -1 0 0 Z " fill="#07030F" transform="translate(374,259)"/>
<path d="M0 0 C0.66 0.33 1.32 0.66 2 1 C0.50902342 4.7952131 -1.75700849 6.61042731 -5 9 C-5.66 8.67 -6.32 8.34 -7 8 C-7 6.68 -7 5.36 -7 4 C-7.99 3.67 -8.98 3.34 -10 3 C-8 2 -8 2 -4.4375 1.5 C-1.17612856 1.37544938 -1.17612856 1.37544938 0 0 Z " fill="#7B03E3" transform="translate(178,239)"/>
<path d="M0 0 C-0.59283621 3.39192363 -1.76743189 5.2107757 -4.0625 7.75 C-4.61035156 8.36359375 -5.15820312 8.9771875 -5.72265625 9.609375 C-6.14417969 10.06828125 -6.56570313 10.5271875 -7 11 C-7.33 10.34 -7.66 9.68 -8 9 C-9.32 9.99 -10.64 10.98 -12 12 C-12.66 11.67 -13.32 11.34 -14 11 C-12.04709472 9.16056628 -10.08818082 7.32840869 -8.125 5.5 C-7.29162109 4.71302734 -7.29162109 4.71302734 -6.44140625 3.91015625 C-2.2265625 0 -2.2265625 0 0 0 Z " fill="#A0A0A1" transform="translate(449,278)"/>
<path d="M0 0 C1 3 1 3 -0.1875 5.453125 C-3.96514102 11.28241588 -7.80278301 16.37147544 -13 21 C-13 17.06830895 -11.60580385 15.83572772 -9 13 C-8.34 13 -7.68 13 -7 13 C-6.72414063 12.43796875 -6.44828125 11.8759375 -6.1640625 11.296875 C-4.95631972 8.91381206 -3.67823191 6.5820992 -2.375 4.25 C-1.92898438 3.45078125 -1.48296875 2.6515625 -1.0234375 1.828125 C-0.68570312 1.22484375 -0.34796875 0.6215625 0 0 Z " fill="#A62BED" transform="translate(426,214)"/>
<path d="M0 0 C3.00048246 3.58211445 4.77698774 7.53012116 6.6875 11.75 C7.00783203 12.44738281 7.32816406 13.14476562 7.65820312 13.86328125 C8.44306261 15.57357208 9.22211648 17.28652507 10 19 C9.01 19.33 8.02 19.66 7 20 C5.82685974 17.23174812 4.66129785 14.46071514 3.5 11.6875 C2.99919922 10.50897461 2.99919922 10.50897461 2.48828125 9.30664062 C2.17246094 8.54931641 1.85664062 7.79199219 1.53125 7.01171875 C1.23798828 6.31522217 0.94472656 5.61872559 0.64257812 4.90112305 C0 3 0 3 0 0 Z " fill="#9826CE" transform="translate(61,209)"/>
<path d="M0 0 C0.66 0.33 1.32 0.66 2 1 C-1.10266636 4.98914247 -3.53141089 7.54227599 -8 10 C-9.68477344 11.31037934 -11.35648543 12.63823078 -13 14 C-13 12.35 -13 10.7 -13 9 C-12.01 9 -11.02 9 -10 9 C-7.42123668 7.00773214 -7.42123668 7.00773214 -4.8125 4.5 C-3.91144531 3.6646875 -3.01039063 2.829375 -2.08203125 1.96875 C-1.39496094 1.3190625 -0.70789063 0.669375 0 0 Z " fill="#BDBCBE" transform="translate(316,198)"/>
<path d="M0 0 C4 4 8 8 12 12 C11.67 12.66 11.34 13.32 11 14 C8.69 11.69 6.38 9.38 4 7 C3.01 7.495 3.01 7.495 2 8 C0.93224776 6.03533587 -0.06553465 4.03144641 -1 2 C-0.67 1.34 -0.34 0.68 0 0 Z " fill="#C7C7C7" transform="translate(168,143)"/>
<path d="M0 0 C2.97 0 5.94 0 9 0 C8.34 1.32 7.68 2.64 7 4 C7 4.99 7 5.98 7 7 C5.83040013 6.02433888 4.66438823 5.044375 3.5 4.0625 C2.8503125 3.51722656 2.200625 2.97195312 1.53125 2.41015625 C1.0259375 1.94480469 0.520625 1.47945312 0 1 C0 0.67 0 0.34 0 0 Z " fill="#7201DC" transform="translate(320,241)"/>
<path d="M0 0 C3.0831351 1.19899698 6.06279492 2.47700477 9 4 C7.4375 5.25 7.4375 5.25 5 6 C2.42998985 4.93237266 0.3469597 3.53455057 -2 2 C-1.34 1.34 -0.68 0.68 0 0 Z " fill="#AE32F0" transform="translate(96,254)"/>
<path d="M0 0 C0.66 0.33 1.32 0.66 2 1 C1.42647107 4.87132028 -0.48704352 7.08172796 -3 10 C-3 9.34 -3 8.68 -3 8 C-3.99 8.33 -4.98 8.66 -6 9 C-6 8.34 -6 7.68 -6 7 C-5.34 7 -4.68 7 -4 7 C-3.71125 6.401875 -3.4225 5.80375 -3.125 5.1875 C-2 3 -2 3 0 0 Z " fill="#B6B5B6" transform="translate(330,143)"/>
<path d="M0 0 C0.33 0 0.66 0 1 0 C1.02725341 1.7290774 1.04650987 3.45828176 1.0625 5.1875 C1.07410156 6.15042969 1.08570313 7.11335937 1.09765625 8.10546875 C1.00486622 10.85576513 0.62111685 13.32479591 0 16 C-2.11105893 12.56952924 -2.31926658 9.99083219 -2 6 C-1 2.625 -1 2.625 0 0 Z " fill="#940EF9" transform="translate(430,189)"/>
<path d="M0 0 C0.33 0 0.66 0 1 0 C1 5.28 1 10.56 1 16 C0.01 16 -0.98 16 -2 16 C-2.66 14.02 -3.32 12.04 -4 10 C-3.34 10 -2.68 10 -2 10 C-2 10.99 -2 11.98 -2 13 C-1.34 13 -0.68 13 0 13 C0 8.71 0 4.42 0 0 Z " fill="#A1A0A1" transform="translate(213,278)"/>
<path d="M0 0 C3.94139078 1.66751148 6.7892812 4.22710649 10 7 C6.44017986 7 4.09207186 6.85805646 1.25 4.625 C0 3 0 3 0 0 Z " fill="#BCBCBB" transform="translate(51,279)"/>
<path d="M0 0 C2.5 2.0625 2.5 2.0625 5 5 C5.3125 8.8125 5.3125 8.8125 5 12 C1.75254486 7.86687528 0 5.36067372 0 0 Z " fill="#636263" transform="translate(171,149)"/>
<path d="M0 0 C0.99 0.33 1.98 0.66 3 1 C2.01 1.66 1.02 2.32 0 3 C0 2.01 0 1.02 0 0 Z M-1 3 C1 6 1 6 1 9 C1.99 9.33 2.98 9.66 4 10 C3.01 10.495 3.01 10.495 2 11 C0.35 9.35 -1.3 7.7 -3 6 C-2.34 5.01 -1.68 4.02 -1 3 Z " fill="#8205EB" transform="translate(329,240)"/>
<path d="M0 0 C0.66 0.33 1.32 0.66 2 1 C1.67 1.99 1.34 2.98 1 4 C-2.3 4 -5.6 4 -9 4 C-9.33 3.34 -9.66 2.68 -10 2 C-9.04287109 1.90912109 -9.04287109 1.90912109 -8.06640625 1.81640625 C-6.82697266 1.69072266 -6.82697266 1.69072266 -5.5625 1.5625 C-4.73878906 1.48128906 -3.91507813 1.40007812 -3.06640625 1.31640625 C-1.01337975 1.21069185 -1.01337975 1.21069185 0 0 Z " fill="#7001D8" transform="translate(178,239)"/>
<path d="M0 0 C0 3.93235469 -1.54945341 5.02964049 -4 8 C-4.33 8.99 -4.66 9.98 -5 11 C-5.99 10.67 -6.98 10.34 -8 10 C-5.83735988 6.01618925 -3.28788824 3.11016455 0 0 Z " fill="#5E00C0" transform="translate(326,230)"/>
<path d="M0 0 C0 0.66 0 1.32 0 2 C-3.01490557 3.00496852 -5.04181692 3.10335303 -8.1875 3.0625 C-9.53908203 3.04896484 -9.53908203 3.04896484 -10.91796875 3.03515625 C-11.60503906 3.02355469 -12.29210937 3.01195312 -13 3 C-13 2.67 -13 2.34 -13 2 C-11.58461283 1.66127487 -10.16762037 1.32925376 -8.75 1 C-7.56664062 0.7215625 -7.56664062 0.7215625 -6.359375 0.4375 C-4 0 -4 0 0 0 Z " fill="#B737F4" transform="translate(386,262)"/>
<path d="M0 0 C-0.1875 1.8125 -0.1875 1.8125 -1 4 C-3.4375 5.8125 -3.4375 5.8125 -6 7 C-6.66 6.67 -7.32 6.34 -8 6 C-7.0479279 4.99403703 -6.08812654 3.99538437 -5.125 3 C-4.59132813 2.443125 -4.05765625 1.88625 -3.5078125 1.3125 C-2 0 -2 0 0 0 Z " fill="#D8D9DA" transform="translate(449,278)"/>
<path d="M0 0 C0.66 0.33 1.32 0.66 2 1 C-1.0684847 3.97550031 -2.46236331 4.96474513 -6.8125 5.25 C-7.864375 5.1675 -8.91625 5.085 -10 5 C-7.30040523 3.20027015 -5.98962454 2.74740613 -3 2 C-2.01 1.34 -1.02 0.68 0 0 Z " fill="#5A00BC" transform="translate(426,189)"/>
<path d="M0 0 C4.05606165 0.46800711 7.46588679 0.87953208 11 3 C9.741875 3.020625 8.48375 3.04125 7.1875 3.0625 C6.47980469 3.07410156 5.77210937 3.08570313 5.04296875 3.09765625 C3 3 3 3 0 2 C0 1.34 0 0.68 0 0 Z " fill="#B634F1" transform="translate(113,262)"/>
<path d="M0 0 C-0.33 0.99 -0.66 1.98 -1 3 C-2.875 3.875 -2.875 3.875 -5 4 C-6.75 2.5625 -6.75 2.5625 -8 1 C-5.29120665 -0.35439668 -2.99066732 -0.06501451 0 0 Z " fill="#C0C0C2" transform="translate(500,111)"/>
<path d="M0 0 C0.66 0.33 1.32 0.66 2 1 C0.38405168 3.04119788 -1.2856382 5.04072937 -3 7 C-3.66 7 -4.32 7 -5 7 C-3.70700306 4.11562221 -2.34058637 2.12780579 0 0 Z " fill="#717173" transform="translate(316,198)"/>
<path d="M0 0 C1 3 1 3 -0.4375 6.1875 C-1.2109375 7.5796875 -1.2109375 7.5796875 -2 9 C-2.66 8.01 -3.32 7.02 -4 6 C-2.68 4.02 -1.36 2.04 0 0 Z " fill="#A22CDA" transform="translate(432,221)"/>
</svg>
